<svg width="116" height="116" viewBox="0 0 116 44" fill="none" xmlns="http://www.w3.org/2000/svg">
<path d="M8.174 43.396C6.81 43.396 5.402 43.154 3.95 42.67C2.52 42.164 1.222 41.383 0.0560001 40.327L3.29 36.433C4.06 37.049 4.885 37.555 5.765 37.951C6.667 38.325 7.514 38.512 8.306 38.512C9.164 38.512 9.78 38.38 10.154 38.116C10.55 37.852 10.748 37.478 10.748 36.994C10.748 36.73 10.682 36.51 10.55 36.334C10.418 36.158 10.22 35.993 9.956 35.839C9.714 35.685 9.417 35.542 9.065 35.41C8.713 35.256 8.306 35.091 7.844 34.915L5.171 33.793C4.599 33.573 4.049 33.287 3.521 32.935C2.993 32.561 2.531 32.132 2.135 31.648C1.739 31.142 1.42 30.57 1.178 29.932C0.958 29.294 0.848 28.59 0.848 27.82C0.848 26.896 1.046 26.038 1.442 25.246C1.838 24.432 2.388 23.728 3.092 23.134C3.796 22.518 4.632 22.034 5.6 21.682C6.59 21.33 7.668 21.154 8.834 21.154C10.066 21.154 11.309 21.385 12.563 21.847C13.839 22.309 14.972 23.035 15.962 24.025L13.124 27.589C12.398 27.083 11.694 26.698 11.012 26.434C10.352 26.17 9.626 26.038 8.834 26.038C8.13 26.038 7.58 26.159 7.184 26.401C6.788 26.643 6.59 27.006 6.59 27.49C6.59 27.996 6.865 28.392 7.415 28.678C7.987 28.942 8.768 29.261 9.758 29.635L12.365 30.658C13.707 31.186 14.741 31.923 15.467 32.869C16.193 33.815 16.556 35.036 16.556 36.532C16.556 37.434 16.369 38.303 15.995 39.139C15.621 39.975 15.071 40.712 14.345 41.35C13.641 41.966 12.772 42.461 11.738 42.835C10.704 43.209 9.516 43.396 8.174 43.396ZM27.831 43.396C27.061 43.396 26.368 43.264 25.752 43C25.136 42.714 24.608 42.34 24.168 41.878C23.75 41.416 23.431 40.877 23.211 40.261C22.991 39.645 22.881 38.996 22.881 38.314C22.881 36.598 23.585 35.256 24.993 34.288C26.401 33.298 28.689 32.638 31.857 32.308C31.725 31.164 30.955 30.592 29.547 30.592C28.953 30.592 28.326 30.713 27.666 30.955C27.006 31.175 26.247 31.516 25.389 31.978L23.409 28.282C24.575 27.578 25.752 27.039 26.94 26.665C28.128 26.291 29.371 26.104 30.669 26.104C32.803 26.104 34.475 26.72 35.685 27.952C36.917 29.162 37.533 31.12 37.533 33.826V43H32.913L32.517 41.416H32.385C31.725 42.01 31.021 42.494 30.273 42.868C29.547 43.22 28.733 43.396 27.831 43.396ZM29.811 39.04C30.273 39.04 30.647 38.941 30.933 38.743C31.241 38.523 31.549 38.248 31.857 37.918V35.674C30.493 35.872 29.558 36.169 29.052 36.565C28.546 36.961 28.293 37.39 28.293 37.852C28.293 38.644 28.799 39.04 29.811 39.04ZM50.3153 43.396C49.3473 43.396 48.5333 43.253 47.8733 42.967C47.2353 42.659 46.7183 42.23 46.3223 41.68C45.9263 41.13 45.6403 40.481 45.4643 39.733C45.3103 38.963 45.2333 38.116 45.2333 37.192V20.032H50.9093V37.39C50.9093 37.962 51.0083 38.347 51.2063 38.545C51.4263 38.743 51.6353 38.842 51.8333 38.842C51.9433 38.842 52.0313 38.842 52.0973 38.842C52.1853 38.842 52.2953 38.82 52.4273 38.776L53.0873 42.934C52.7793 43.066 52.3943 43.176 51.9323 43.264C51.4923 43.352 50.9533 43.396 50.3153 43.396ZM64.0784 43.396C63.1764 43.396 62.3954 43.242 61.7354 42.934C61.0974 42.604 60.5694 42.153 60.1514 41.581C59.7334 40.987 59.4254 40.283 59.2274 39.469C59.0294 38.633 58.9304 37.698 58.9304 36.664V26.5H64.6064V35.938C64.6064 36.994 64.7384 37.698 65.0024 38.05C65.2664 38.402 65.6844 38.578 66.2564 38.578C66.7844 38.578 67.2134 38.468 67.5434 38.248C67.8954 38.028 68.2584 37.654 68.6324 37.126V26.5H74.3084V43H69.6884L69.2924 40.822H69.1604C68.5004 41.614 67.7634 42.241 66.9494 42.703C66.1574 43.165 65.2004 43.396 64.0784 43.396ZM88.9386 43.396C87.8606 43.396 86.9366 43.242 86.1666 42.934C85.4186 42.604 84.7916 42.142 84.2856 41.548C83.8016 40.954 83.4386 40.25 83.1966 39.436C82.9766 38.6 82.8666 37.676 82.8666 36.664V30.922H80.6886V26.698L83.1966 26.5L83.8566 22.21H88.5426V26.5H92.3046V30.922H88.5426V36.565C88.5426 37.489 88.7406 38.127 89.1366 38.479C89.5326 38.809 89.9946 38.974 90.5226 38.974C90.7866 38.974 91.0396 38.952 91.2816 38.908C91.5456 38.842 91.7766 38.776 91.9746 38.71L92.8326 42.802C92.3926 42.934 91.8646 43.066 91.2486 43.198C90.6326 43.33 89.8626 43.396 88.9386 43.396ZM105.251 27.628L103.739 10.114L103.361 0.789999H114.197L113.819 10.114L112.307 27.628H105.251ZM108.779 43.756C106.931 43.756 105.419 43.126 104.243 41.866C103.067 40.606 102.479 39.052 102.479 37.204C102.479 35.356 103.067 33.802 104.243 32.542C105.419 31.282 106.931 30.652 108.779 30.652C110.627 30.652 112.139 31.282 113.315 32.542C114.491 33.802 115.079 35.356 115.079 37.204C115.079 39.052 114.491 40.606 113.315 41.866C112.139 43.126 110.627 43.756 108.779 43.756Z" fill="white"/>
</svg>
